<svg width="636" height="269" viewBox="0 0 636 269" fill="none" xmlns="http://www.w3.org/2000/svg">
<g filter="url(#filter0_d_82_994)">
<path d="M607.5 71.9999C610.5 76.3333 616.5 96.1 616.5 134.5C616.5 172.9 610.5 192.667 607.5 197L598.5 207.5C598.333 209.5 596.5 215.1 590.5 221.5C583 229.5 565 247 549 248C533 249 469.5 250 433 250C407 250 366.5 248 298 248C229.5 248 194.5 249.5 167.5 249.5C140.5 249.5 119 249 106.5 247.5C94 246 73.5 241 72.5 240C58.5 237.5 45.5 235 37 219C28.5 203 19.5 168 19.5 134.5C19.5 101 28.5 65.9999 37 49.9999C45.5 33.9999 58.5 31.4999 72.5 28.9999C73.5 27.9999 94 22.9999 106.5 21.4999C119 19.9999 140.5 19.4999 167.5 19.4999C194.5 19.4999 229.5 21 298 21C366.5 21 407 19 433 19C469.5 19 533 19.9999 549 20.9999C565 21.9999 583 39.4999 590.5 47.4999C596.5 53.8999 598.333 59.4999 598.5 61.4999L607.5 71.9999Z" stroke="white" stroke-width="2" shape-rendering="crispEdges"/>
</g>
<path d="M424.5 238.5L434 250.5L297 248.5V246M424.5 238.5H405M424.5 238.5L419.833 231.5M293 232.5L285.5 211.5H296.5M293 232.5L293.5 235M293 232.5C296.987 232.5 301.496 232.536 306.5 232.579M295.269 240.5L294.5 238.5L293.5 235M295.269 240.5L297 245V246M295.269 240.5L386.5 240M419.833 231.5L419.5 231H415C414.422 230.75 413.752 230.469 413 230.164M419.833 231.5C386 234.5 317.75 235 293.5 235M413 230.164C405.73 227.209 390.725 221.9 375.5 219C358.7 215.8 316.167 212.667 297 211.5H296.5M413 230.164C367.707 233.156 331.116 232.788 306.5 232.579M306.5 232.579L296.5 211.5M297 246C298.826 245.924 301.527 245.792 304 245.634M310 245C311 244.5 315 244 316.5 244C317.25 244 320.625 244.5 324 245M310 245C309.565 245.217 306.944 245.445 304 245.634M310 245C311.167 245.5 314.1 246.5 316.5 246.5C318.9 246.5 322.5 245.5 324 245M329 245.724C330.227 245.891 331.15 246 331.5 246C333 246 347 247.5 348 248C348.8 248.4 335.667 246.649 329 245.724ZM329 245.724C326.5 247.448 321.5 248 315.5 248C312.3 248 306.5 246.422 304 245.634M329 245.724C327.598 245.533 325.799 245.267 324 245" stroke="white"/>
<path d="M424.5 30.5L434 18.5L297 20.5V23M424.5 30.5L405 30M424.5 30.5L419.833 37.5M293 36.5L285.5 57.5H296.5M293 36.5L293.5 34M293 36.5C296.987 36.5 301.496 36.4639 306.5 36.4213M405 30L400.5 26M405 30C404.333 31 402.5 33 400.5 33H394L393.398 31.4386M295.269 28.5L294.5 30.5L293.5 34M295.269 28.5L297 24V23M295.269 28.5L386.5 29H386.873M419.833 37.5L419.5 38H415C414.422 38.2501 413.752 38.5306 413 38.8364M419.833 37.5C386 34.5 317.75 34 293.5 34M413 38.8364C405.73 41.7912 390.725 47.1001 375.5 50C358.7 53.2 316.167 56.3333 297 57.5H296.5M413 38.8364C368.428 35.8919 332.284 36.2009 307.685 36.4112L306.5 36.4213M306.5 36.4213L296.5 57.5M297 23C298.826 23.0761 301.527 23.2077 304 23.3664M310 24C311 24.5 315 25 316.5 25C317.25 25 320.625 24.5 324 24M310 24C309.565 23.7826 306.944 23.5553 304 23.3664M310 24C311.167 23.5 314.1 22.5 316.5 22.5C318.9 22.5 322.5 23.5 324 24M329 23.2761C330.227 23.109 331.15 23 331.5 23C333 23 347 21.5 348 21C348.8 20.6 335.667 22.3507 329 23.2761ZM329 23.2761C326.5 21.5522 321.5 21 315.5 21C312.3 21 306.5 22.5776 304 23.3664M329 23.2761C327.598 23.4669 325.799 23.7334 324 24M400.5 26C399.833 23 397.6 16.1 394 12.5C391.005 9.50492 385.264 7.22507 381.5 6.06358M400.5 26C400 27.3333 398.5 30.2 396.5 31C395.761 31.2957 394.634 31.4184 393.398 31.4386M393.398 31.4386C392.113 31.4597 390.709 31.3701 389.5 31.2492M381.5 6.06358C380.74 5.82899 380.06 5.64003 379.5 5.5L386.873 29M381.5 6.06358L389.5 31.2492M389.5 31.2492C388.727 31.172 388.033 31.082 387.5 31L386.873 29" stroke="white"/>
<path d="M400.5 243L405 239C404.333 238 402.5 236 400.5 236C398.5 236 395.333 236 394 236L393.398 237.561M400.5 243C399.833 246 397.6 252.9 394 256.5C391.005 259.495 385.264 261.775 381.5 262.936M400.5 243C400 241.667 398.5 238.8 396.5 238C395.761 237.704 394.634 237.582 393.398 237.561M393.398 237.561C392.113 237.54 390.709 237.63 389.5 237.751M381.5 262.936C380.74 263.171 380.06 263.36 379.5 263.5L387.5 238C388.033 237.918 388.727 237.828 389.5 237.751M381.5 262.936L389.5 237.751" stroke="white"/>
<path d="M599 74C600.5 79.5 606 107.5 606.5 134.5C606 161.5 600.5 189.5 599 195M599 74C607 77 610.5 79.5 610.5 79.5M599 74C572.5 66.764 507.1 50.2628 457.5 42.146M599 74C598.245 71.232 597.237 67.7042 596.039 64.5M573 41C578.333 45.3333 588.1 53.6 590.5 56C591.99 57.4902 594.857 61.3375 596.039 64.5M573 41L501.5 41M573 41C572.682 40.8714 572.348 40.7373 572 40.5985M501.5 41C490.667 40.5 468.6 39.5 467 39.5M501.5 41L596.039 64.5M467 39.5C465.735 39.5 461.053 40.9586 457.5 42.146M467 39.5C460.167 37.8333 445.5 34.3 441.5 33.5C437.5 32.7 428.5 31.1667 424.5 30.5M455 42.5C461.333 50.6667 474 82.5 474 134.5C474 186.5 461.333 218.333 455 226.5M455 42.5L457.5 42.146M455 42.5C452.833 41.6667 423.5 39.5 423.5 39.5M579 36.5C575.5 33.5 562.5 29.5 559 29C557.515 28.7879 546 26 545.5 26C545.293 26 544.403 26.2564 543.5 26.8045M572 40.5985C563.782 37.3206 547.64 31.3838 541.5 31C541.5 30 541.5 29.2283 542 28.5M572 40.5985V38M572 36C577.167 39 589.1 48.1 595.5 58.5C596.7 60.1 598 61.1667 598.5 61.5M572 36V38M572 36C566.833 33 554.5 29.5 543.5 26.8045M542 28.5C548.358 29.7572 563.2 33.6 572 38M542 28.5L542.003 28.4962C542.414 27.896 542.922 27.1553 543.5 26.8045M423.5 39.5C423.5 39.5 420.5 39 419.5 38M423.5 39.5C424.491 40.1306 426.456 41.3067 429 42.6965M429 42.6965C431.162 43.8778 433.743 45.2135 436.5 46.5C444 50 453 58.5 456 62.5C459 66.5 470 86.5 470 134.5C470 182.5 459 202.5 456 206.5C453 210.5 444 219 436.5 222.5C433.743 223.786 431.162 225.122 429 226.304M429 42.6965C401.744 49.8063 387.819 55.3431 357 58.9138M121.5 68C156.667 67 242.1 64.5 302.5 62.5C325.902 61.7251 343.156 60.5178 357 58.9138M121.5 68V71M121.5 68C121.5 66.3948 120.238 64.8948 117.618 63.5M121.5 71C166.5 69.6667 265.7 66.8 302.5 66C339.3 65.2 355.167 63.3333 358.5 62.5M121.5 71V86.5M358.5 62.5C362.333 75.3333 370 109.3 370 134.5C370 159.7 362.333 193.667 358.5 206.5M358.5 62.5L357 58.9138M117.618 63.5C114.524 61.8535 109.538 60.3535 102.5 59C93.0113 57.1752 82.7234 56.416 73.9695 57.5M117.618 63.5C96.5 71 89.7347 75.5 83.5 99C79.5 114.077 79.5 130.5 79.5 134.5C79.5 138.5 79.5 154.923 83.5 170C89.7347 193.5 96.5 198 117.618 205.5M121.5 86.5C116 86 112 85.5 108 85V97C112 98.2 118.667 98.8333 121.5 99M121.5 86.5V99M121.5 99V170M73.9695 57.5C75.1464 58.5 77.9 60.6 79.5 61C81.5 61.5 91.5 64 96 65.5C100.5 67 95.5 71 94.5 72.5C93.7 73.7 91.5 76.6667 90.5 78C86 76.3333 75.2 72.8 68 72C59 71 50.5 71 45.5 83.5C40.5 96 39 115 39 134.5C39 154 40.5 173 45.5 185.5C50.5 198 59 198 68 197C75.2 196.2 86 192.667 90.5 191C91.5 192.333 93.7 195.3 94.5 196.5C95.5 198 100.5 202 96 203.5C91.5 205 81.5 207.5 79.5 208C77.9 208.4 75.1464 210.5 73.9695 211.5M73.9695 57.5C71.336 57.8261 68.8413 58.3191 66.549 59M73.9695 57.5L69.7347 53.25M66.549 59C66.0217 59.1566 65.5051 59.3232 65 59.5C53.5 63.525 34.5 79 33.5 107C33 121 33 134.5 33 134.5C33 134.5 33 148 33.5 162C34.5 190 53.5 205.475 65 209.5C65.5051 209.677 66.0217 209.843 66.549 210M66.549 59C48 72 43.4294 76.5441 39 95C36 107.5 36 129.5 36 134.5C36 139.5 36 161.5 39 174C43.4294 192.456 48 197 66.549 210M69.7347 53.25L65.5 49M69.7347 53.25C77.9898 50.3333 100.8 44.2 126 43M65.5 49C70.4315 45.8388 81.7524 40.1065 94.9644 37M65.5 49C60.4949 52.0587 55.9537 55.272 51.5323 59.5M126 43C119.294 46.2 116.539 49 116 50C116.861 50.2749 117.868 50.5799 119 50.9053M126 43C141.2 39.8 157.333 38.6667 163.5 38.5M164.5 41L185 57.5H160.5C145.547 57.5 128.165 53.539 119 50.9053M164.5 41C157.167 41.1667 140.6 42 133 44C125.4 46 120.5 49.4368 119 50.9053M164.5 41L163.5 38.5M163.5 38.5L160.5 32.5M160.5 32.5C150.667 32.8333 126.4 33.8 108 35C103.56 35.2896 99.1665 36.012 94.9644 37M160.5 32.5L162.5 26.5C136 27.5 114.5 28.5 96 29.5M96 29.5C89.2 33.9 84.8333 36.3333 83.5 37M96 29.5C102.8 25.9 106.833 22.3333 108 21M83.5 37H94.9644M83.5 37C79.5 39 69 39 61.5 44C55.8381 47.7746 51.601 54.1137 48.7886 58.5M83.5 37C75.5151 37 67.8427 37.5852 60.5 41M37 74C33.8333 78.5 27.4 91.4 27 107C26.6 122.6 26.5 134.5 26.5 134.5C26.5 134.5 26.6 146.4 27 162C27.4 177.6 33.8333 190.5 37 195M37 74C38.1646 72.5859 40.0349 70.2917 41.865 68M37 74C38.3857 70.3377 41.053 63.9361 44.08 58M60.5 41C57.2676 42.5032 53 45 50.5 47.5C48.132 49.868 46.15 53.9407 44.08 58M60.5 41C54 46.5 50.5 50 47.5 56C47.1645 56.671 46.8299 57.3498 46.5 58.0265M41.865 68C43.7018 65.7 45.4982 63.4025 46.5 62C47.1127 61.1422 47.8756 59.924 48.7886 58.5M41.865 68C42.6205 66.2796 44.47 62.1912 46.5 58.0265M44.08 58L46.5 58.0265M44.08 58C43.5098 58 42.5073 58.0228 41.3103 58.0903M46.5 58.0265L48.7886 58.5M48.7886 58.5L51.5323 59.5M51.5323 59.5C48.0035 62.8745 44.551 66.8955 41 72C33 83.5 30 94 30 134.5C30 175 33 185.5 41 197C44.551 202.105 48.0035 206.125 51.5323 209.5M32.5 59C32.8333 59 34.2 58.9 37 58.5C38.462 58.2911 40.0023 58.1641 41.3103 58.0903M41.3103 58.0903C37.7068 63.8935 29.9 78.1 27.5 88.5C24.5 101.5 23 120.5 23 134.5C23 148.5 24.5 167.5 27.5 180.5C29.9 190.9 37.7068 205.106 41.3103 210.91M41.3103 58.0903C44.08 53.25 44.5 52 49.5 45C54.5 38 69.5 31 72.5 29.5M55.5 33.5C53.3784 35.5 48.408 40.2 45.5 43C42.592 45.8 37.955 51 36 53.25M599 195C607 192 610.5 189.5 610.5 189.5M599 195C572.5 202.236 507.1 218.737 457.5 226.854M599 195C598.245 197.768 597.237 201.296 596.039 204.5M573 228C578.333 223.667 588.1 215.4 590.5 213C591.99 211.51 594.857 207.663 596.039 204.5M573 228H501.5M573 228C572.682 228.129 572.348 228.263 572 228.401M501.5 228C490.667 228.5 468.6 229.5 467 229.5M501.5 228L596.039 204.5M467 229.5C465.735 229.5 461.053 228.041 457.5 226.854M467 229.5C460.167 231.167 445.5 234.7 441.5 235.5C437.5 236.3 428.5 237.833 424.5 238.5M455 226.5L457.5 226.854M455 226.5C452.833 227.333 423.5 229.5 423.5 229.5M579 232.5C575.5 235.5 562.5 239.5 559 240C557.515 240.212 546 243 545.5 243C545.293 243 544.403 242.744 543.5 242.195M572 228.401C563.782 231.679 547.64 237.616 541.5 238C541.5 239 541.5 239.772 542 240.5M572 228.401V231M572 233C577.167 230 589.1 220.9 595.5 210.5C596.7 208.9 598 207.833 598.5 207.5M572 233V231M572 233C566.833 236 554.5 239.5 543.5 242.195M542 240.5C548.358 239.243 563.2 235.4 572 231M542 240.5L542.003 240.504C542.414 241.104 542.922 241.845 543.5 242.195M423.5 229.5C423.5 229.5 420.5 230 419.5 231M423.5 229.5C424.491 228.869 426.456 227.693 429 226.304M429 226.304C401.744 219.194 387.819 213.657 357 210.086M121.5 201C156.667 202 242.1 204.5 302.5 206.5C325.902 207.275 343.156 208.482 357 210.086M121.5 201V198M121.5 201C121.5 202.605 120.238 204.105 117.618 205.5M121.5 198C166.5 199.333 265.7 202.2 302.5 203C339.3 203.8 355.167 205.667 358.5 206.5M121.5 198V182.5M358.5 206.5L357 210.086M117.618 205.5C114.524 207.147 109.538 208.647 102.5 210C93.0113 211.825 82.7234 212.584 73.9695 211.5M121.5 182.5C116 183 112 183.5 108 184V172C112 170.8 118.667 170.167 121.5 170M121.5 182.5V170M73.9695 211.5C71.336 211.174 68.8413 210.681 66.549 210M73.9695 211.5L69.7347 215.75M69.7347 215.75L65.5 220M69.7347 215.75C77.9898 218.667 100.8 224.8 126 226M65.5 220C70.4315 223.161 81.7524 228.894 94.9644 232M65.5 220C60.4949 216.941 55.9537 213.728 51.5323 209.5M126 226C119.294 222.8 116.539 220 116 219C116.861 218.725 117.868 218.42 119 218.095M126 226C141.2 229.2 157.333 230.333 163.5 230.5M164.5 228L185 211.5H160.5C145.547 211.5 128.165 215.461 119 218.095M164.5 228C157.167 227.833 140.6 227 133 225C125.4 223 120.5 219.563 119 218.095M164.5 228L163.5 230.5M163.5 230.5L160.5 236.5M160.5 236.5C150.667 236.167 126.4 235.2 108 234C103.56 233.71 99.1665 232.988 94.9644 232M160.5 236.5L162.5 242.5C136 241.5 114.5 240.5 96 239.5M96 239.5C89.2 235.1 84.8333 232.667 83.5 232M96 239.5C102.8 243.1 106.833 246.667 108 248M83.5 232H94.9644M83.5 232C79.5 230 69 230 61.5 225C55.8381 221.225 51.601 214.886 48.7886 210.5M83.5 232C75.5151 232 67.8427 231.415 60.5 228M37 195C38.1646 196.414 40.0349 198.708 41.865 201M37 195C38.3857 198.662 41.053 205.064 44.08 211M60.5 228C57.2676 226.497 53 224 50.5 221.5C48.132 219.132 46.15 215.059 44.08 211M60.5 228C54 222.5 50.5 219 47.5 213C47.1645 212.329 46.8299 211.65 46.5 210.973M41.865 201C43.7018 203.3 45.4982 205.597 46.5 207C47.1127 207.858 47.8756 209.076 48.7886 210.5M41.865 201C42.6205 202.72 44.47 206.809 46.5 210.973M44.08 211L46.5 210.973M44.08 211C43.5098 211 42.5073 210.977 41.3103 210.91M46.5 210.973L48.7886 210.5M48.7886 210.5L51.5323 209.5M32.5 210C32.8333 210 34.2 210.1 37 210.5C38.462 210.709 40.0023 210.836 41.3103 210.91M41.3103 210.91C44.08 215.75 44.5 217 49.5 224C54.5 231 69.5 238 72.5 239.5M55.5 235.5C53.3784 233.5 48.408 228.8 45.5 226C42.592 223.2 37.955 218 36 215.75" stroke="white"/>
<path d="M453.5 63C444.5 52 434 48.5 425 47.5C417 49 377.5 57 371.5 59.5C365.5 62 363.5 62.5 366 74C368.5 85.5 370.5 98.5 371 103C371.5 107.5 375 110.5 381 112C387 113.5 396 116.5 399.5 119C403 121.5 403 130 403 134.5C403 139 403 147.5 399.5 150C396 152.5 387 155.5 381 157C375 158.5 371.5 161.5 371 166C370.5 170.5 368.5 183.5 366 195C363.5 206.5 365.5 207 371.5 209.5C377.5 212 417 220 425 221.5C434 220.5 444.5 217 453.5 206C462.5 195 468 157.5 468 134.5C468 111.5 462.5 74 453.5 63Z" fill="#C4C4C4" fill-opacity="0.6" stroke="white"/>
<path d="M164.5 41L185 57.5H197M164.5 41L163 38M164.5 41C167.697 40.6575 171.773 40.3313 176.5 40.0223M163 38L160.5 32.5M163 38C199.476 36.5 276.686 33.6 293.714 34M160.5 32.5C189.7 30.5 247 30.6667 272 31M160.5 32.5C160.798 31.7558 161.601 29.7087 162.624 27M293 36.5L285.5 57.5H278M293 36.5H282.5M293 36.5L293.714 34M278 57.5L282.5 36.5M278 57.5L197 57.5M282.5 36.5C260.59 36.8652 219.691 37.8171 190.5 39.2389M197 57.5L188.203 50M176.5 40.0223C180.705 39.7473 185.426 39.486 190.5 39.2389M176.5 40.0223L188.203 50M190.5 39.2389L188.203 50M293.714 34L294.286 32M295.333 28.5L296.5 25L296.833 23.5M295.333 28.5L295 29.5L294.286 32M295.333 28.5H258L272 31M272 31L294.286 32M162.624 27C162.746 26.6758 162.872 26.3421 163 26C164.2 22.8 166.5 20.3333 167.5 19.5L216.5 20.5H260.5L297.5 20.5L296.833 23.5M162.624 27H170.5C170.666 27.0356 170.849 27.0737 171.047 27.1139M296.833 23.5C268.167 23.5 200 26 197 26C196.568 26 196.063 26.0519 195.5 26.1408M195.5 26.1408C193.833 25.0939 189.1 23 183.5 23C176.5 23 172.595 25.7277 171.047 27.1139M195.5 26.1408C193.848 26.4016 191.699 26.9808 189.432 27.5M171.047 27.1139C172.237 27.3549 173.972 27.6678 175.86 27.9354M175.86 27.9354C178.072 28.2489 180.495 28.5 182.5 28.5C184.665 28.5 187.11 28.0314 189.432 27.5M175.86 27.9354C176.073 27.4569 177.7 26.4 182.5 26C187.3 25.6 189.121 26.8333 189.432 27.5" stroke="white"/>
<path d="M164.5 228L185 211.5H197M164.5 228L163 231M164.5 228C167.697 228.342 171.773 228.669 176.5 228.978M163 231L160.5 236.5M163 231C199.476 232.5 276.686 235.4 293.714 235M160.5 236.5C189.7 238.5 247 238.333 272 238M160.5 236.5C160.798 237.244 161.601 239.291 162.624 242M293 232.5L285.5 211.5H278M293 232.5H282.5M293 232.5L293.714 235M278 211.5L282.5 232.5M278 211.5H197M282.5 232.5C260.59 232.135 219.691 231.183 190.5 229.761M197 211.5L188.203 219M176.5 228.978C180.705 229.253 185.426 229.514 190.5 229.761M176.5 228.978L188.203 219M190.5 229.761L188.203 219M293.714 235L294.286 237M295.333 240.5L296.5 244L296.833 245.5M295.333 240.5L295 239.5L294.286 237M295.333 240.5H258L272 238M272 238L294.286 237M162.624 242C162.746 242.324 162.872 242.658 163 243C164.2 246.2 166.5 248.667 167.5 249.5L216.5 248.5H260.5H297.5L296.833 245.5M162.624 242H170.5C170.666 241.964 170.849 241.926 171.047 241.886M296.833 245.5C268.167 245.5 200 243 197 243C196.568 243 196.063 242.948 195.5 242.859M195.5 242.859C193.833 243.906 189.1 246 183.5 246C176.5 246 172.595 243.272 171.047 241.886M195.5 242.859C193.848 242.598 191.699 242.019 189.432 241.5M171.047 241.886C172.237 241.645 173.972 241.332 175.86 241.065M175.86 241.065C178.072 240.751 180.495 240.5 182.5 240.5C184.665 240.5 187.11 240.969 189.432 241.5M175.86 241.065C176.073 241.543 177.7 242.6 182.5 243C187.3 243.4 189.121 242.167 189.432 241.5" stroke="white"/>
<path d="M157 134.5C156.333 133.5 153.6 131.4 148 131C146.024 130.859 143.866 131.087 141.775 131.5M133.087 134.233C132.876 134.326 132.679 134.415 132.5 134.5L133.087 134.233ZM133.087 134.233C135.041 133.373 138.316 132.183 141.775 131.5M133.087 134.233V131.268C135.742 131.345 141.196 131.5 141.775 131.5" stroke="white"/>
<path d="M157 134.5C156.333 135.5 153.6 137.6 148 138C146.024 138.141 143.866 137.913 141.775 137.5M133.087 134.767C132.876 134.674 132.679 134.585 132.5 134.5L133.087 134.767ZM133.087 134.767C135.041 135.627 138.316 136.817 141.775 137.5M133.087 134.767V137.732C135.742 137.655 141.196 137.5 141.775 137.5" stroke="white"/>
<defs>
<filter id="filter0_d_82_994" x="0.5" y="0" width="635" height="269" filterUnits="userSpaceOnUse" color-interpolation-filters="sRGB">
<feFlood flood-opacity="0" result="BackgroundImageFix"/>
<feColorMatrix in="SourceAlpha" type="matrix" values="0 0 0 0 0 0 0 0 0 0 0 0 0 0 0 0 0 0 127 0" result="hardAlpha"/>
<feOffset/>
<feGaussianBlur stdDeviation="9"/>
<feComposite in2="hardAlpha" operator="out"/>
<feColorMatrix type="matrix" values="0 0 0 0 0 0 0 0 0 0 0 0 0 0 0 0 0 0 1 0"/>
<feBlend mode="normal" in2="BackgroundImageFix" result="effect1_dropShadow_82_994"/>
<feBlend mode="normal" in="SourceGraphic" in2="effect1_dropShadow_82_994" result="shape"/>
</filter>
</defs>
</svg>
