<svg width="636" height="269" viewBox="0 0 636 269" fill="none" xmlns="http://www.w3.org/2000/svg">
<g filter="url(#filter0_d_82_994)">
<path d="M28.5 197C25.5 192.667 19.5 172.9 19.5 134.5C19.5 96.1 25.5 76.3333 28.5 71.9999L37.5 61.4999C37.6667 59.4999 39.5 53.8999 45.5 47.4999C53 39.4999 71 21.9999 87 20.9999C103 19.9999 166.5 19 203 19C229 19 269.5 21 338 21C406.5 21 441.5 19.4999 468.5 19.4999C495.5 19.4999 517 19.9999 529.5 21.4999C542 22.9999 562.5 27.9999 563.5 28.9999C577.5 31.4999 590.5 33.9999 599 49.9999C607.5 65.9999 616.5 101 616.5 134.5C616.5 168 607.5 203 599 219C590.5 235 577.5 237.5 563.5 240C562.5 241 542 246 529.5 247.5C517 249 495.5 249.5 468.5 249.5C441.5 249.5 406.5 248 338 248C269.5 248 229 250 203 250C166.5 250 103 249 87 248C71 247 53 229.5 45.5 221.5C39.5 215.1 37.6667 209.5 37.5 207.5L28.5 197Z" stroke="white" stroke-width="2" shape-rendering="crispEdges"/>
</g>
<path d="M211.5 30.5L202 18.5L339 20.5V23M211.5 30.5H231M211.5 30.5L216.167 37.5M343 36.5L350.5 57.5H339.5M343 36.5L342.5 34M343 36.5C339.013 36.5 334.504 36.4639 329.5 36.4213M340.731 28.5L341.5 30.5L342.5 34M340.731 28.5L339 24V23M340.731 28.5L249.5 29M216.167 37.5L216.5 38H221C221.578 38.2501 222.248 38.5306 223 38.8364M216.167 37.5C250 34.5 318.25 34 342.5 34M223 38.8364C230.27 41.7912 245.275 47.1001 260.5 50C277.3 53.2 319.833 56.3333 339 57.5H339.5M223 38.8364C268.293 35.8442 304.884 36.2118 329.5 36.4213M329.5 36.4213L339.5 57.5M339 23C337.174 23.0761 334.473 23.2077 332 23.3664M326 24C325 24.5 321 25 319.5 25C318.75 25 315.375 24.5 312 24M326 24C326.435 23.7826 329.056 23.5553 332 23.3664M326 24C324.833 23.5 321.9 22.5 319.5 22.5C317.1 22.5 313.5 23.5 312 24M307 23.2761C305.773 23.109 304.85 23 304.5 23C303 23 289 21.5 288 21C287.2 20.6 300.333 22.3507 307 23.2761ZM307 23.2761C309.5 21.5522 314.5 21 320.5 21C323.7 21 329.5 22.5776 332 23.3664M307 23.2761C308.402 23.4669 310.201 23.7334 312 24" stroke="white"/>
<path d="M211.5 238.5L202 250.5L339 248.5V246M211.5 238.5L231 239M211.5 238.5L216.167 231.5M343 232.5L350.5 211.5H339.5M343 232.5L342.5 235M343 232.5C339.013 232.5 334.504 232.536 329.5 232.579M231 239L235.5 243M231 239C231.667 238 233.5 236 235.5 236H242L242.602 237.561M340.731 240.5L341.5 238.5L342.5 235M340.731 240.5L339 245V246M340.731 240.5L249.5 240H249.127M216.167 231.5L216.5 231H221C221.578 230.75 222.248 230.469 223 230.164M216.167 231.5C250 234.5 318.25 235 342.5 235M223 230.164C230.27 227.209 245.275 221.9 260.5 219C277.3 215.8 319.833 212.667 339 211.5H339.5M223 230.164C267.572 233.108 303.716 232.799 328.315 232.589L329.5 232.579M329.5 232.579L339.5 211.5M339 246C337.174 245.924 334.473 245.792 332 245.634M326 245C325 244.5 321 244 319.5 244C318.75 244 315.375 244.5 312 245M326 245C326.435 245.217 329.056 245.445 332 245.634M326 245C324.833 245.5 321.9 246.5 319.5 246.5C317.1 246.5 313.5 245.5 312 245M307 245.724C305.773 245.891 304.85 246 304.5 246C303 246 289 247.5 288 248C287.2 248.4 300.333 246.649 307 245.724ZM307 245.724C309.5 247.448 314.5 248 320.5 248C323.7 248 329.5 246.422 332 245.634M307 245.724C308.402 245.533 310.201 245.267 312 245M235.5 243C236.167 246 238.4 252.9 242 256.5C244.995 259.495 250.736 261.775 254.5 262.936M235.5 243C236 241.667 237.5 238.8 239.5 238C240.239 237.704 241.366 237.582 242.602 237.561M242.602 237.561C243.887 237.54 245.291 237.63 246.5 237.751M254.5 262.936C255.26 263.171 255.94 263.36 256.5 263.5L249.127 240M254.5 262.936L246.5 237.751M246.5 237.751C247.273 237.828 247.967 237.918 248.5 238L249.127 240" stroke="white"/>
<path d="M235.5 26L231 30C231.667 31 233.5 33 235.5 33C237.5 33 240.667 33 242 33L242.602 31.4386M235.5 26C236.167 23 238.4 16.1 242 12.5C244.995 9.50492 250.736 7.22507 254.5 6.06358M235.5 26C236 27.3333 237.5 30.2 239.5 31C240.239 31.2957 241.366 31.4184 242.602 31.4386M242.602 31.4386C243.887 31.4597 245.291 31.3701 246.5 31.2492M254.5 6.06358C255.26 5.82899 255.94 5.64003 256.5 5.5L248.5 31C247.967 31.082 247.273 31.172 246.5 31.2492M254.5 6.06358L246.5 31.2492" stroke="white"/>
<path d="M37 195C35.5 189.5 30 161.5 29.5 134.5C30 107.5 35.5 79.5 37 74M37 195C29 192 25.5 189.5 25.5 189.5M37 195C63.5 202.236 128.9 218.737 178.5 226.854M37 195C37.7549 197.768 38.7631 201.296 39.9608 204.5M63 228C57.6667 223.667 47.9 215.4 45.5 213C44.0098 211.51 41.143 207.663 39.9608 204.5M63 228H134.5M63 228C63.3182 228.129 63.652 228.263 64 228.401M134.5 228C145.333 228.5 167.4 229.5 169 229.5M134.5 228L39.9608 204.5M169 229.5C170.265 229.5 174.947 228.041 178.5 226.854M169 229.5C175.833 231.167 190.5 234.7 194.5 235.5C198.5 236.3 207.5 237.833 211.5 238.5M181 226.5C174.667 218.333 162 186.5 162 134.5C162 82.5 174.667 50.6667 181 42.5M181 226.5L178.5 226.854M181 226.5C183.167 227.333 212.5 229.5 212.5 229.5M57 232.5C60.5 235.5 73.5 239.5 77 240C78.4849 240.212 90 243 90.5 243C90.7067 243 91.5972 242.744 92.5 242.195M64 228.401C72.2183 231.679 88.36 237.616 94.5 238C94.5 239 94.4995 239.772 94 240.5M64 228.401V231M64 233C58.8333 230 46.9 220.9 40.5 210.5C39.3 208.9 38 207.833 37.5 207.5M64 233V231M64 233C69.1667 236 81.5 239.5 92.5 242.195M94 240.5C87.6416 239.243 72.8 235.4 64 231M94 240.5L93.9974 240.504C93.5858 241.104 93.0778 241.845 92.5 242.195M212.5 229.5C212.5 229.5 215.5 230 216.5 231M212.5 229.5C211.509 228.869 209.544 227.693 207 226.304M207 226.304C204.838 225.122 202.257 223.786 199.5 222.5C192 219 183 210.5 180 206.5C177 202.5 166 182.5 166 134.5C166 86.5 177 66.5 180 62.5C183 58.5 192 50 199.5 46.5C202.257 45.2135 204.838 43.8778 207 42.6965M207 226.304C234.256 219.194 248.181 213.657 279 210.086M514.5 201C479.333 202 393.9 204.5 333.5 206.5C310.098 207.275 292.844 208.482 279 210.086M514.5 201V198M514.5 201C514.5 202.605 515.762 204.105 518.382 205.5M514.5 198C469.5 199.333 370.3 202.2 333.5 203C296.7 203.8 280.833 205.667 277.5 206.5M514.5 198V182.5M277.5 206.5C273.667 193.667 266 159.7 266 134.5C266 109.3 273.667 75.3333 277.5 62.5M277.5 206.5L279 210.086M518.382 205.5C521.476 207.147 526.462 208.647 533.5 210C542.989 211.825 553.277 212.584 562.03 211.5M518.382 205.5C539.5 198 546.265 193.5 552.5 170C556.5 154.923 556.5 138.5 556.5 134.5C556.5 130.5 556.5 114.077 552.5 99C546.265 75.5 539.5 71 518.382 63.5M514.5 182.5C520 183 524 183.5 528 184V172C524 170.8 517.333 170.167 514.5 170M514.5 182.5V170M514.5 170V99M562.03 211.5C560.854 210.5 558.1 208.4 556.5 208C554.5 207.5 544.5 205 540 203.5C535.5 202 540.5 198 541.5 196.5C542.3 195.3 544.5 192.333 545.5 191C550 192.667 560.8 196.2 568 197C577 198 585.5 198 590.5 185.5C595.5 173 597 154 597 134.5C597 115 595.5 96 590.5 83.5C585.5 71 577 71 568 72C560.8 72.8 550 76.3333 545.5 78C544.5 76.6667 542.3 73.7 541.5 72.5C540.5 71 535.5 67 540 65.5C544.5 64 554.5 61.5 556.5 61C558.1 60.6 560.854 58.5 562.03 57.5M562.03 211.5C564.664 211.174 567.159 210.681 569.451 210M562.03 211.5L566.265 215.75M569.451 210C569.978 209.843 570.495 209.677 571 209.5C582.5 205.475 601.5 190 602.5 162C603 148 603 134.5 603 134.5C603 134.5 603 121 602.5 107C601.5 79 582.5 63.525 571 59.5C570.495 59.3232 569.978 59.1566 569.451 59M569.451 210C588 197 592.571 192.456 597 174C600 161.5 600 139.5 600 134.5C600 129.5 600 107.5 597 95C592.571 76.5441 588 72 569.451 59M566.265 215.75L570.5 220M566.265 215.75C558.01 218.667 535.2 224.8 510 226M570.5 220C565.568 223.161 554.248 228.894 541.036 232M570.5 220C575.505 216.941 580.046 213.728 584.468 209.5M510 226C516.706 222.8 519.461 220 520 219C519.139 218.725 518.132 218.42 517 218.095M510 226C494.8 229.2 478.667 230.333 472.5 230.5M471.5 228L451 211.5H475.5C490.453 211.5 507.835 215.461 517 218.095M471.5 228C478.833 227.833 495.4 227 503 225C510.6 223 515.5 219.563 517 218.095M471.5 228L472.5 230.5M472.5 230.5L475.5 236.5M475.5 236.5C485.333 236.167 509.6 235.2 528 234C532.44 233.71 536.833 232.988 541.036 232M475.5 236.5L473.5 242.5C500 241.5 521.5 240.5 540 239.5M540 239.5C546.8 235.1 551.167 232.667 552.5 232M540 239.5C533.2 243.1 529.167 246.667 528 248M552.5 232H541.036M552.5 232C556.5 230 567 230 574.5 225C580.162 221.225 584.399 214.886 587.211 210.5M552.5 232C560.485 232 568.157 231.415 575.5 228M599 195C602.167 190.5 608.6 177.6 609 162C609.4 146.4 609.5 134.5 609.5 134.5C609.5 134.5 609.4 122.6 609 107C608.6 91.4 602.167 78.5 599 74M599 195C597.835 196.414 595.965 198.708 594.135 201M599 195C597.614 198.662 594.947 205.064 591.92 211M575.5 228C578.732 226.497 583 224 585.5 221.5C587.868 219.132 589.85 215.059 591.92 211M575.5 228C582 222.5 585.5 219 588.5 213C588.836 212.329 589.17 211.65 589.5 210.973M594.135 201C592.298 203.3 590.502 205.597 589.5 207C588.887 207.858 588.124 209.076 587.211 210.5M594.135 201C593.379 202.72 591.53 206.809 589.5 210.973M591.92 211L589.5 210.973M591.92 211C592.49 211 593.493 210.977 594.69 210.91M589.5 210.973L587.211 210.5M587.211 210.5L584.468 209.5M584.468 209.5C587.997 206.125 591.449 202.105 595 197C603 185.5 606 175 606 134.5C606 94 603 83.5 595 72C591.449 66.8955 587.997 62.8745 584.468 59.5M603.5 210C603.167 210 601.8 210.1 599 210.5C597.538 210.709 595.998 210.836 594.69 210.91M594.69 210.91C598.293 205.106 606.1 190.9 608.5 180.5C611.5 167.5 613 148.5 613 134.5C613 120.5 611.5 101.5 608.5 88.5C606.1 78.1 598.293 63.8935 594.69 58.0903M594.69 210.91C591.92 215.75 591.5 217 586.5 224C581.5 231 566.5 238 563.5 239.5M580.5 235.5C582.622 233.5 587.592 228.8 590.5 226C593.408 223.2 598.045 218 600 215.75M37 74C29 77 25.5 79.5 25.5 79.5M37 74C63.5 66.764 128.9 50.2628 178.5 42.146M37 74C37.7549 71.232 38.7631 67.7042 39.9608 64.5M63 41C57.6667 45.3333 47.9 53.6 45.5 56C44.0098 57.4902 41.143 61.3375 39.9608 64.5M63 41H134.5M63 41C63.3182 40.8714 63.652 40.7373 64 40.5985M134.5 41C145.333 40.5 167.4 39.5 169 39.5M134.5 41L39.9608 64.5M169 39.5C170.265 39.5 174.947 40.9586 178.5 42.146M169 39.5C175.833 37.8333 190.5 34.3 194.5 33.5C198.5 32.7 207.5 31.1667 211.5 30.5M181 42.5L178.5 42.146M181 42.5C183.167 41.6667 212.5 39.5 212.5 39.5M57 36.5C60.5 33.5 73.5 29.5 77 29C78.4849 28.7879 90 26 90.5 26C90.7067 26 91.5972 26.2564 92.5 26.8046M64 40.5985C72.2183 37.3206 88.36 31.3838 94.5 31C94.5 30 94.4995 29.2283 94 28.5M64 40.5985V38M64 36C58.8333 39 46.9 48.1 40.5 58.5C39.3 60.1 38 61.1667 37.5 61.5M64 36V38M64 36C69.1667 33 81.5 29.5 92.5 26.8046M94 28.5C87.6416 29.7572 72.8 33.6 64 38M94 28.5L93.9974 28.4962C93.5858 27.896 93.0778 27.1553 92.5 26.8046M212.5 39.5C212.5 39.5 215.5 39 216.5 38M212.5 39.5C211.509 40.1306 209.544 41.3067 207 42.6965M207 42.6965C234.256 49.8063 248.181 55.3431 279 58.9138M514.5 68C479.333 67 393.9 64.5 333.5 62.5C310.098 61.7251 292.844 60.5178 279 58.9138M514.5 68V71M514.5 68C514.5 66.3948 515.762 64.8948 518.382 63.5M514.5 71C469.5 69.6667 370.3 66.8 333.5 66C296.7 65.2 280.833 63.3333 277.5 62.5M514.5 71V86.5M277.5 62.5L279 58.9138M518.382 63.5C521.476 61.8535 526.462 60.3535 533.5 59C542.989 57.1752 553.277 56.416 562.03 57.5M514.5 86.5C520 86 524 85.5 528 85V97C524 98.2 517.333 98.8333 514.5 99M514.5 86.5V99M562.03 57.5C564.664 57.8261 567.159 58.3191 569.451 59M562.03 57.5L566.265 53.25M566.265 53.25L570.5 49M566.265 53.25C558.01 50.3333 535.2 44.2 510 43M570.5 49C565.568 45.8388 554.248 40.1065 541.036 37M570.5 49C575.505 52.0587 580.046 55.272 584.468 59.5M510 43C516.706 46.2 519.461 49 520 50C519.139 50.2749 518.132 50.5799 517 50.9053M510 43C494.8 39.8 478.667 38.6667 472.5 38.5M471.5 41L451 57.5H475.5C490.453 57.5 507.835 53.539 517 50.9053M471.5 41C478.833 41.1667 495.4 42 503 44C510.6 46 515.5 49.4368 517 50.9053M471.5 41L472.5 38.5M472.5 38.5L475.5 32.5M475.5 32.5C485.333 32.8333 509.6 33.8 528 35C532.44 35.2896 536.833 36.012 541.036 37M475.5 32.5L473.5 26.5C500 27.5 521.5 28.5 540 29.5M540 29.5C546.8 33.9 551.167 36.3333 552.5 37M540 29.5C533.2 25.9 529.167 22.3333 528 21M552.5 37H541.036M552.5 37C556.5 39 567 39 574.5 44C580.162 47.7746 584.399 54.1137 587.211 58.5M552.5 37C560.485 37 568.157 37.5852 575.5 41M599 74C597.835 72.5859 595.965 70.2917 594.135 68M599 74C597.614 70.3377 594.947 63.9361 591.92 58M575.5 41C578.732 42.5032 583 45 585.5 47.5C587.868 49.868 589.85 53.9407 591.92 58M575.5 41C582 46.5 585.5 50 588.5 56C588.836 56.671 589.17 57.3498 589.5 58.0265M594.135 68C592.298 65.7 590.502 63.4025 589.5 62C588.887 61.1422 588.124 59.924 587.211 58.5M594.135 68C593.379 66.2796 591.53 62.1912 589.5 58.0265M591.92 58L589.5 58.0265M591.92 58C592.49 58 593.493 58.0228 594.69 58.0903M589.5 58.0265L587.211 58.5M587.211 58.5L584.468 59.5M603.5 59C603.167 59 601.8 58.9 599 58.5C597.538 58.2911 595.998 58.1641 594.69 58.0903M594.69 58.0903C591.92 53.25 591.5 52 586.5 45C581.5 38 566.5 31 563.5 29.5M580.5 33.5C582.622 35.5 587.592 40.2 590.5 43C593.408 45.8 598.045 51 600 53.25" stroke="white"/>
<path d="M182.5 206C191.5 217 202 220.5 211 221.5C219 220 258.5 212 264.5 209.5C270.5 207 272.5 206.5 270 195C267.5 183.5 265.5 170.5 265 166C264.5 161.5 261 158.5 255 157C249 155.5 240 152.5 236.5 150C233 147.5 233 139 233 134.5C233 130 233 121.5 236.5 119C240 116.5 249 113.5 255 112C261 110.5 264.5 107.5 265 103C265.5 98.5 267.5 85.5 270 74C272.5 62.5 270.5 62 264.5 59.5C258.5 57 219 49 211 47.5C202 48.5 191.5 52 182.5 63C173.5 74 168 111.5 168 134.5C168 157.5 173.5 195 182.5 206Z" fill="#C4C4C4" fill-opacity="0.6" stroke="white"/>
<path d="M471.5 228L451 211.5H439M471.5 228L473 231M471.5 228C468.303 228.342 464.227 228.669 459.5 228.978M473 231L475.5 236.5M473 231C436.524 232.5 359.314 235.4 342.286 235M475.5 236.5C446.3 238.5 389 238.333 364 238M475.5 236.5C475.202 237.244 474.399 239.291 473.376 242M343 232.5L350.5 211.5H358M343 232.5H353.5M343 232.5L342.286 235M358 211.5L353.5 232.5M358 211.5H439M353.5 232.5C375.41 232.135 416.309 231.183 445.5 229.761M439 211.5L447.797 219M459.5 228.978C455.295 229.253 450.574 229.514 445.5 229.761M459.5 228.978L447.797 219M445.5 229.761L447.797 219M342.286 235L341.714 237M340.667 240.5L339.5 244L339.167 245.5M340.667 240.5L341 239.5L341.714 237M340.667 240.5H378L364 238M364 238L341.714 237M473.376 242C473.254 242.324 473.128 242.658 473 243C471.8 246.2 469.5 248.667 468.5 249.5L419.5 248.5H375.5H338.5L339.167 245.5M473.376 242H465.5C465.334 241.964 465.151 241.926 464.953 241.886M339.167 245.5C367.833 245.5 436 243 439 243C439.432 243 439.937 242.948 440.5 242.859M440.5 242.859C442.167 243.906 446.9 246 452.5 246C459.5 246 463.405 243.272 464.953 241.886M440.5 242.859C442.152 242.598 444.301 242.019 446.568 241.5M464.953 241.886C463.763 241.645 462.028 241.332 460.14 241.065M460.14 241.065C457.928 240.751 455.505 240.5 453.5 240.5C451.335 240.5 448.89 240.969 446.568 241.5M460.14 241.065C459.927 241.543 458.3 242.6 453.5 243C448.7 243.4 446.879 242.167 446.568 241.5" stroke="white"/>
<path d="M471.5 41L451 57.5H439M471.5 41L473 38M471.5 41C468.303 40.6575 464.227 40.3313 459.5 40.0223M473 38L475.5 32.5M473 38C436.524 36.5 359.314 33.6 342.286 34M475.5 32.5C446.3 30.5 389 30.6667 364 31M475.5 32.5C475.202 31.7558 474.399 29.7087 473.376 27M343 36.5L350.5 57.5H358M343 36.5H353.5M343 36.5L342.286 34M358 57.5L353.5 36.5M358 57.5L439 57.5M353.5 36.5C375.41 36.8652 416.309 37.8171 445.5 39.2389M439 57.5L447.797 50M459.5 40.0223C455.295 39.7473 450.574 39.486 445.5 39.2389M459.5 40.0223L447.797 50M445.5 39.2389L447.797 50M342.286 34L341.714 32M340.667 28.5L339.5 25L339.167 23.5M340.667 28.5L341 29.5L341.714 32M340.667 28.5H378L364 31M364 31L341.714 32M473.376 27C473.254 26.6758 473.128 26.3421 473 26C471.8 22.8 469.5 20.3333 468.5 19.5L419.5 20.5H375.5L338.5 20.5L339.167 23.5M473.376 27H465.5C465.334 27.0356 465.151 27.0737 464.953 27.1139M339.167 23.5C367.833 23.5 436 26 439 26C439.432 26 439.937 26.0519 440.5 26.1408M440.5 26.1408C442.167 25.0939 446.9 23 452.5 23C459.5 23 463.405 25.7277 464.953 27.1139M440.5 26.1408C442.152 26.4016 444.301 26.9808 446.568 27.5M464.953 27.1139C463.763 27.3549 462.028 27.6678 460.14 27.9354M460.14 27.9354C457.928 28.2489 455.505 28.5 453.5 28.5C451.335 28.5 448.89 28.0314 446.568 27.5M460.14 27.9354C459.927 27.4569 458.3 26.4 453.5 26C448.7 25.6 446.879 26.8333 446.568 27.5" stroke="white"/>
<path d="M479 134.5C479.667 135.5 482.4 137.6 488 138C489.976 138.141 492.134 137.913 494.225 137.5M502.913 134.767C503.124 134.674 503.321 134.585 503.5 134.5L502.913 134.767ZM502.913 134.767C500.959 135.627 497.684 136.817 494.225 137.5M502.913 134.767V137.732C500.258 137.655 494.804 137.5 494.225 137.5" stroke="white"/>
<path d="M479 134.5C479.667 133.5 482.4 131.4 488 131C489.976 130.859 492.134 131.087 494.225 131.5M502.913 134.233C503.124 134.326 503.321 134.415 503.5 134.5L502.913 134.233ZM502.913 134.233C500.959 133.373 497.684 132.183 494.225 131.5M502.913 134.233V131.268C500.258 131.345 494.804 131.5 494.225 131.5" stroke="white"/>
<defs>
<filter id="filter0_d_82_994" x="0.5" y="0" width="635" height="269" filterUnits="userSpaceOnUse" color-interpolation-filters="sRGB">
<feFlood flood-opacity="0" result="BackgroundImageFix"/>
<feColorMatrix in="SourceAlpha" type="matrix" values="0 0 0 0 0 0 0 0 0 0 0 0 0 0 0 0 0 0 127 0" result="hardAlpha"/>
<feOffset/>
<feGaussianBlur stdDeviation="9"/>
<feComposite in2="hardAlpha" operator="out"/>
<feColorMatrix type="matrix" values="0 0 0 0 0 0 0 0 0 0 0 0 0 0 0 0 0 0 1 0"/>
<feBlend mode="normal" in2="BackgroundImageFix" result="effect1_dropShadow_82_994"/>
<feBlend mode="normal" in="SourceGraphic" in2="effect1_dropShadow_82_994" result="shape"/>
</filter>
</defs>
</svg>
