<svg width="270" height="635" viewBox="0 0 270 635" fill="none" xmlns="http://www.w3.org/2000/svg">
<g filter="url(#filter0_d_82_994)">
<path d="M197.5 607C193.167 610 173.4 616 135 616C96.6 616 76.8333 610 72.4999 607L61.9999 598C59.9999 597.833 54.3999 596 47.9999 590C39.9999 582.5 22.4999 564.5 21.4999 548.5C20.4999 532.5 19.5 469 19.5 432.5C19.5 406.5 21.5 366 21.5 297.5C21.5 229 19.9999 194 19.9999 167C19.9999 140 20.4999 118.5 21.9999 106C23.4999 93.5 28.4999 73 29.4999 72C31.9999 58 34.4999 45 50.4999 36.5C66.4999 28 101.5 19 135 19C168.5 19 203.5 28 219.5 36.5C235.5 45 238 58 240.5 72C241.5 73 246.5 93.5 248 106C249.5 118.5 250 140 250 167C250 194 248.5 229 248.5 297.5C248.5 366 250.5 406.5 250.5 432.5C250.5 469 249.5 532.5 248.5 548.5C247.5 564.5 230 582.5 222 590C215.6 596 210 597.833 208 598L197.5 607Z" stroke="white" stroke-width="2" shape-rendering="crispEdges"/>
</g>
<path d="M31 424L19 433.5L21 296.5H23.5M31 424L31 404.5M31 424L38 419.333M37 292.5L58 285L58 296M37 292.5L34.5 293M37 292.5C37 296.487 36.9639 300.996 36.9213 306M29 294.769L31 294L34.5 293M29 294.769L24.5 296.5H23.5M29 294.769L29.5 386M38 419.333L38.5 419V414.5C38.7501 413.922 39.0306 413.252 39.3364 412.5M38 419.333C35 385.5 34.5 317.25 34.5 293M39.3364 412.5C42.2912 405.23 47.6001 390.225 50.5 375C53.7 358.2 56.8333 315.667 58 296.5V296M39.3364 412.5C36.3442 367.207 36.7118 330.616 36.9213 306M36.9213 306L58 296M23.5 296.5C23.5761 298.326 23.7077 301.027 23.8664 303.5M24.5 309.5C25 310.5 25.5 314.5 25.5 316C25.5 316.75 25 320.125 24.5 323.5M24.5 309.5C24.2826 309.065 24.0553 306.444 23.8664 303.5M24.5 309.5C24 310.667 23 313.6 23 316C23 318.4 24 322 24.5 323.5M23.7761 328.5C23.609 329.727 23.5 330.65 23.5 331C23.5 332.5 22 346.5 21.5 347.5C21.1 348.3 22.8507 335.167 23.7761 328.5ZM23.7761 328.5C22.0522 326 21.5 321 21.5 315C21.5 311.8 23.0776 306 23.8664 303.5M23.7761 328.5C23.9669 327.098 24.2334 325.299 24.5 323.5" stroke="white"/>
<path d="M239 424L251 433.5L249 296.5H246.5M239 424L239.5 404.5M239 424L232 419.333M233 292.5L212 285L212 296M233 292.5L235.5 293M233 292.5C233 296.487 233.036 300.996 233.079 306M239.5 404.5L243.5 400M239.5 404.5C238.5 403.833 236.5 402 236.5 400V393.5L238.061 392.898M241 294.769L239 294L235.5 293M241 294.769L245.5 296.5H246.5M241 294.769L240.5 386V386.373M232 419.333L231.5 419V414.5C231.25 413.922 230.969 413.252 230.664 412.5M232 419.333C235 385.5 235.5 317.25 235.5 293M230.664 412.5C227.709 405.23 222.4 390.225 219.5 375C216.3 358.2 213.167 315.667 212 296.5V296M230.664 412.5C233.608 367.928 233.299 331.784 233.089 307.185L233.079 306M233.079 306L212 296M246.5 296.5C246.424 298.326 246.292 301.027 246.134 303.5M245.5 309.5C245 310.5 244.5 314.5 244.5 316C244.5 316.75 245 320.125 245.5 323.5M245.5 309.5C245.717 309.065 245.945 306.444 246.134 303.5M245.5 309.5C246 310.667 247 313.6 247 316C247 318.4 246 322 245.5 323.5M246.224 328.5C246.391 329.727 246.5 330.65 246.5 331C246.5 332.5 248 346.5 248.5 347.5C248.9 348.3 247.149 335.167 246.224 328.5ZM246.224 328.5C247.948 326 248.5 321 248.5 315C248.5 311.8 246.922 306 246.134 303.5M246.224 328.5C246.033 327.098 245.767 325.299 245.5 323.5M243.5 400C246.5 399.333 253.4 397.1 257 393.5C259.995 390.505 262.275 384.764 263.436 381M243.5 400C242.167 399.5 239.3 398 238.5 396C238.204 395.261 238.082 394.134 238.061 392.898M238.061 392.898C238.04 391.613 238.13 390.209 238.251 389M263.436 381C263.671 380.24 263.86 379.56 264 379L240.5 386.373M263.436 381L238.251 389M238.251 389C238.328 388.227 238.418 387.533 238.5 387L240.5 386.373" stroke="white"/>
<path d="M26.5 400L30.5 404.5C31.5 403.833 33.5 402 33.5 400C33.5 398 33.5 394.833 33.5 393.5L31.9386 392.898M26.5 400C23.5 399.333 16.6 397.1 13 393.5C10.0049 390.505 7.72507 384.764 6.56358 381M26.5 400C27.8333 399.5 30.7 398 31.5 396C31.7957 395.261 31.9184 394.134 31.9386 392.898M31.9386 392.898C31.9597 391.613 31.8701 390.209 31.7492 389M6.56358 381C6.32899 380.24 6.14003 379.56 6 379L31.5 387C31.582 387.533 31.672 388.227 31.7492 389M6.56358 381L31.7492 389" stroke="white"/>
<path d="M195.5 598.5C190 600 162 605.5 135 606C108 605.5 80 600 74.5 598.5M195.5 598.5C192.5 606.5 190 610 190 610M195.5 598.5C202.736 572 219.237 506.6 227.354 457M195.5 598.5C198.268 597.745 201.796 596.737 205 595.539M228.5 572.5C224.167 577.833 215.9 587.6 213.5 590C212.01 591.49 208.163 594.357 205 595.539M228.5 572.5V501M228.5 572.5C228.629 572.182 228.763 571.848 228.901 571.5M228.5 501C229 490.167 230 468.1 230 466.5M228.5 501L205 595.539M230 466.5C230 465.235 228.541 460.553 227.354 457M230 466.5C231.667 459.667 235.2 445 236 441C236.8 437 238.333 428 239 424M227 454.5C218.833 460.833 187 473.5 135 473.5C83 473.5 51.1667 460.833 43 454.5M227 454.5L227.354 457M227 454.5C227.833 452.333 230 423 230 423M233 578.5C236 575 240 562 240.5 558.5C240.712 557.015 243.5 545.5 243.5 545C243.5 544.793 243.244 543.903 242.695 543M228.901 571.5C232.179 563.282 238.116 547.14 238.5 541C239.5 541 240.272 541 241 541.5M228.901 571.5H231.5M233.5 571.5C230.5 576.667 221.4 588.6 211 595C209.4 596.2 208.333 597.5 208 598M233.5 571.5H231.5M233.5 571.5C236.5 566.333 240 554 242.695 543M241 541.5C239.743 547.858 235.9 562.7 231.5 571.5M241 541.5L241.004 541.503C241.604 541.914 242.345 542.422 242.695 543M230 423C230 423 230.5 420 231.5 419M230 423C229.369 423.991 228.193 425.956 226.804 428.5M226.804 428.5C225.622 430.662 224.286 433.243 223 436C219.5 443.5 211 452.5 207 455.5C203 458.5 183 469.5 135 469.5C87 469.5 67 458.5 63 455.5C59 452.5 50.5 443.5 47 436C45.7135 433.243 44.3778 430.662 43.1965 428.5M226.804 428.5C219.694 401.244 214.157 387.319 210.586 356.5M201.5 121C202.5 156.167 205 241.6 207 302C207.775 325.402 208.982 342.656 210.586 356.5M201.5 121H198.5M201.5 121C203.105 121 204.605 119.738 206 117.118M198.5 121C199.833 166 202.7 265.2 203.5 302C204.3 338.8 206.167 354.667 207 358M198.5 121H183M207 358C194.167 361.833 160.2 369.5 135 369.5C109.8 369.5 75.8333 361.833 63 358M207 358L210.586 356.5M206 117.118C207.647 114.024 209.147 109.038 210.5 102C212.325 92.5113 213.084 82.2234 212 73.4695M206 117.118C198.5 96 194 89.2347 170.5 83C155.423 79 139 79 135 79C131 79 114.577 79 99.5 83C76 89.2347 71.5 96 64 117.118M183 121C183.5 115.5 184 111.5 184.5 107.5H172.5C171.3 111.5 170.667 118.167 170.5 121M183 121H170.5M170.5 121H99.5M212 73.4695C211 74.6464 208.9 77.4 208.5 79C208 81 205.5 91 204 95.5C202.5 100 198.5 95 197 94C195.8 93.2 192.833 91 191.5 90C193.167 85.5 196.7 74.7 197.5 67.5C198.5 58.5 198.5 50 186 45C173.5 40 154.5 38.5 135 38.5C115.5 38.5 96.5 40 84 45C71.5 50 71.5 58.5 72.5 67.5C73.3 74.7 76.8333 85.5 78.5 90C77.1667 91 74.2 93.2 73 94C71.5 95 67.5 100 66 95.5C64.5 91 62 81 61.5 79C61.1 77.4 59 74.6464 58 73.4695M212 73.4695C211.674 70.836 211.181 68.3413 210.5 66.049M212 73.4695L216.25 69.2347M210.5 66.049C210.343 65.5217 210.177 65.0051 210 64.5C205.975 53 190.5 34 162.5 33C148.5 32.5 135 32.5 135 32.5C135 32.5 121.5 32.5 107.5 33C79.5 34 64.025 53 60 64.5C59.8232 65.0051 59.6566 65.5217 59.5 66.049M210.5 66.049C197.5 47.5 192.956 42.9294 174.5 38.5C162 35.5 140 35.5 135 35.5C130 35.5 108 35.5 95.5 38.5C77.0441 42.9294 72.5 47.5 59.5 66.049M216.25 69.2347L220.5 65M216.25 69.2347C219.167 77.4898 225.3 100.3 226.5 125.5M220.5 65C223.661 69.9315 229.394 81.2524 232.5 94.4644M220.5 65C217.441 59.9949 214.228 55.4537 210 51.0323M226.5 125.5C223.3 118.794 220.5 116.039 219.5 115.5C219.225 116.361 218.92 117.368 218.595 118.5M226.5 125.5C229.7 140.7 230.833 156.833 231 163M228.5 164L212 184.5V160C212 145.047 215.961 127.665 218.595 118.5M228.5 164C228.333 156.667 227.5 140.1 225.5 132.5C223.5 124.9 220.063 120 218.595 118.5M228.5 164L231 163M231 163L237 160M237 160C236.667 150.167 235.7 125.9 234.5 107.5C234.21 103.06 233.488 98.6665 232.5 94.4644M237 160L243 162C242 135.5 241 114 240 95.5M240 95.5C235.6 88.7 233.167 84.3333 232.5 83M240 95.5C243.6 102.3 247.167 106.333 248.5 107.5M232.5 83V94.4644M232.5 83C230.5 79 230.5 68.5 225.5 61C221.725 55.3381 215.386 51.101 211 48.2886M232.5 83C232.5 75.0151 231.915 67.3427 228.5 60M195.5 36.5C191 33.3333 178.1 26.9 162.5 26.5C146.9 26.1 135 26 135 26C135 26 123.1 26.1 107.5 26.5C91.9 26.9 79 33.3333 74.5 36.5M195.5 36.5C196.914 37.6646 199.208 39.5349 201.5 41.365M195.5 36.5C199.162 37.8857 205.564 40.553 211.5 43.58M228.5 60C226.997 56.7676 224.5 52.5 222 50C219.632 47.632 215.559 45.65 211.5 43.58M228.5 60C223 53.5 219.5 50 213.5 47C212.829 46.6645 212.15 46.3299 211.473 46M201.5 41.365C203.8 43.2018 206.097 44.9982 207.5 46C208.358 46.6127 209.576 47.3756 211 48.2886M201.5 41.365C203.22 42.1205 207.309 43.97 211.473 46M211.5 43.58L211.473 46M211.5 43.58C211.5 43.0098 211.477 42.0073 211.41 40.8103M211.473 46L211 48.2886M211 48.2886L210 51.0323M210 51.0323C206.625 47.5035 202.605 44.051 197.5 40.5C186 32.5 175.5 29.5 135 29.5C94.5 29.5 84 32.5 72.5 40.5C67.3955 44.051 63.3745 47.5035 60 51.0323M210.5 32C210.5 32.3333 210.6 33.7 211 36.5C211.209 37.962 211.336 39.5023 211.41 40.8103M211.41 40.8103C205.606 37.2068 191.4 29.4 181 27C168 24 149 22.5 135 22.5C121 22.5 102 24 89 27C78.6 29.4 64.3935 37.2068 58.5903 40.8103M211.41 40.8103C216.25 43.58 217.5 44 224.5 49C231.5 54 238.5 69 240 72M236 55C234 52.8784 229.3 47.908 226.5 45C223.7 42.092 218.5 37.455 216.25 35.5M74.5 598.5C77.5 606.5 80 610 80 610M74.5 598.5C67.264 572 50.7628 506.6 42.646 457M74.5 598.5C71.732 597.745 68.2042 596.737 65 595.539M41.5 572.5C45.8333 577.833 54.1 587.6 56.5 590C57.9902 591.49 61.8375 594.357 65 595.539M41.5 572.5V501M41.5 572.5C41.3714 572.182 41.2373 571.848 41.0985 571.5M41.5 501C41 490.167 40 468.1 40 466.5M41.5 501L65 595.539M40 466.5C40 465.235 41.4586 460.553 42.646 457M40 466.5C38.3333 459.667 34.8 445 34 441C33.2 437 31.6667 428 31 424M43 454.5L42.646 457M43 454.5C42.1667 452.333 40 423 40 423M37 578.5C34 575 30 562 29.5 558.5C29.2879 557.015 26.5 545.5 26.5 545C26.5 544.793 26.7564 543.903 27.3046 543M41.0985 571.5C37.8206 563.282 31.8838 547.14 31.5 541C30.5 541 29.7283 541 29 541.5M41.0985 571.5H38.5M36.5 571.5C39.5 576.667 48.6 588.6 59 595C60.6 596.2 61.6667 597.5 62 598M36.5 571.5H38.5M36.5 571.5C33.5 566.333 30 554 27.3046 543M29 541.5C30.2572 547.858 34.1 562.7 38.5 571.5M29 541.5L28.9962 541.503C28.396 541.914 27.6553 542.422 27.3046 543M40 423C40 423 39.5 420 38.5 419M40 423C40.6306 423.991 41.8067 425.956 43.1965 428.5M43.1965 428.5C50.3063 401.244 55.8431 387.319 59.4138 356.5M68.5 121C67.5 156.167 65 241.6 63 302C62.2251 325.402 61.0178 342.656 59.4138 356.5M68.5 121H71.5M68.5 121C66.8948 121 65.3948 119.738 64 117.118M71.5 121C70.1667 166 67.3 265.2 66.5 302C65.7 338.8 63.8333 354.667 63 358M71.5 121H87M63 358L59.4138 356.5M64 117.118C62.3535 114.024 60.8535 109.038 59.5 102C57.6752 92.5113 56.916 82.2234 58 73.4695M87 121C86.5 115.5 86 111.5 85.5 107.5H97.5C98.7 111.5 99.3333 118.167 99.5 121M87 121H99.5M58 73.4695C58.3261 70.836 58.8191 68.3413 59.5 66.049M58 73.4695L53.75 69.2347M53.75 69.2347L49.5 65M53.75 69.2347C50.8333 77.4898 44.7 100.3 43.5 125.5M49.5 65C46.3388 69.9315 40.6065 81.2524 37.5 94.4644M49.5 65C52.5587 59.9949 55.772 55.4537 60 51.0323M43.5 125.5C46.7 118.794 49.5 116.039 50.5 115.5C50.7749 116.361 51.0799 117.368 51.4053 118.5M43.5 125.5C40.3 140.7 39.1667 156.833 39 163M41.5 164L58 184.5V160C58 145.047 54.039 127.665 51.4053 118.5M41.5 164C41.6667 156.667 42.5 140.1 44.5 132.5C46.5 124.9 49.9368 120 51.4053 118.5M41.5 164L39 163M39 163L33 160M33 160C33.3333 150.167 34.3 125.9 35.5 107.5C35.7896 103.06 36.512 98.6665 37.5 94.4644M33 160L27 162C28 135.5 29 114 30 95.5M30 95.5C34.4 88.7 36.8333 84.3333 37.5 83M30 95.5C26.4 102.3 22.8333 106.333 21.5 107.5M37.5 83V94.4644M37.5 83C39.5 79 39.5 68.5 44.5 61C48.2746 55.3381 54.6137 51.101 59 48.2886M37.5 83C37.5 75.0151 38.0852 67.3427 41.5 60M74.5 36.5C73.0859 37.6646 70.7917 39.5349 68.5 41.365M74.5 36.5C70.8377 37.8857 64.4361 40.553 58.5 43.58M41.5 60C43.0032 56.7676 45.5 52.5 48 50C50.368 47.632 54.4407 45.65 58.5 43.58M41.5 60C47 53.5 50.5 50 56.5 47C57.171 46.6645 57.8498 46.3299 58.5265 46M68.5 41.365C66.2 43.2018 63.9025 44.9982 62.5 46C61.6422 46.6127 60.424 47.3756 59 48.2886M68.5 41.365C66.7796 42.1205 62.6912 43.97 58.5265 46M58.5 43.58L58.5265 46M58.5 43.58C58.5 43.0098 58.5228 42.0073 58.5903 40.8103M58.5265 46L59 48.2886M59 48.2886L60 51.0323M59.5 32C59.5 32.3333 59.4 33.7 59 36.5C58.7911 37.962 58.6641 39.5023 58.5903 40.8103M58.5903 40.8103C53.75 43.58 52.5 44 45.5 49C38.5 54 31.5 69 30 72M34 55C36 52.8784 40.7 47.908 43.5 45C46.3 42.092 51.5 37.455 53.75 35.5" stroke="white"/>
<path d="M206.5 453C217.5 444 221 433.5 222 424.5C220.5 416.5 212.5 377 210 371C207.5 365 207 363 195.5 365.5C184 368 171 370 166.5 370.5C162 371 159 374.5 157.5 380.5C156 386.5 153 395.5 150.5 399C148 402.5 139.5 402.5 135 402.5C130.5 402.5 122 402.5 119.5 399C117 395.5 114 386.5 112.5 380.5C111 374.5 108 371 103.5 370.5C99 370 86 368 74.5 365.5C63 363 62.5 365 60 371C57.5 377 49.5 416.5 48 424.5C49 433.5 52.5 444 63.5 453C74.5 462 112 467.5 135 467.5C158 467.5 195.5 462 206.5 453Z" fill="#C4C4C4" fill-opacity="0.6" stroke="white"/>
<path d="M228.5 164L212 184.5V196.5M228.5 164L231.5 162.5M228.5 164C228.842 167.197 229.169 171.273 229.478 176M231.5 162.5L237 160M231.5 162.5C233 198.976 235.9 276.186 235.5 293.214M237 160C239 189.2 238.833 246.5 238.5 271.5M237 160C237.744 160.298 239.791 161.101 242.5 162.124M233 292.5L212 285V277.5M233 292.5V282M233 292.5L235.5 293.214M212 277.5L233 282M212 277.5V196.5M233 282C232.635 260.09 231.683 219.191 230.261 190M212 196.5L219.5 187.703M229.478 176C229.753 180.205 230.014 184.926 230.261 190M229.478 176L219.5 187.703M230.261 190L219.5 187.703M235.5 293.214L237.5 293.786M241 294.833L244.5 296L246 296.333M241 294.833L240 294.5L237.5 293.786M241 294.833V257.5L238.5 271.5M238.5 271.5L237.5 293.786M242.5 162.124C242.824 162.246 243.158 162.372 243.5 162.5C246.7 163.7 249.167 166 250 167L249 216V260V297L246 296.333M242.5 162.124V170C242.464 170.166 242.426 170.349 242.386 170.547M246 296.333C246 267.667 243.5 199.5 243.5 196.5C243.5 196.068 243.448 195.563 243.359 195M243.359 195C244.406 193.333 246.5 188.6 246.5 183C246.5 176 243.772 172.095 242.386 170.547M243.359 195C243.098 193.348 242.519 191.199 242 188.932M242.386 170.547C242.145 171.737 241.832 173.472 241.565 175.36M241.565 175.36C241.251 177.572 241 179.995 241 182C241 184.165 241.469 186.61 242 188.932M241.565 175.36C242.043 175.573 243.1 177.2 243.5 182C243.9 186.8 242.667 188.621 242 188.932" stroke="white"/>
<path d="M41.5 164L58 184.5V196.5M41.5 164L38.5 162.5M41.5 164C41.1575 167.197 40.8313 171.273 40.5223 176M38.5 162.5L33 160M38.5 162.5C37 198.976 34.1 276.186 34.5 293.214M33 160C31 189.2 31.1667 246.5 31.5 271.5M33 160C32.2558 160.298 30.2087 161.101 27.5 162.124M37 292.5L58 285V277.5M37 292.5V282M37 292.5L34.5 293.214M58 277.5L37 282M58 277.5L58 196.5M37 282C37.3652 260.09 38.3171 219.191 39.7389 190M58 196.5L50.5 187.703M40.5223 176C40.2473 180.205 39.986 184.926 39.7389 190M40.5223 176L50.5 187.703M39.7389 190L50.5 187.703M34.5 293.214L32.5 293.786M29 294.833L25.5 296L24 296.333M29 294.833L30 294.5L32.5 293.786M29 294.833L29 257.5L31.5 271.5M31.5 271.5L32.5 293.786M27.5 162.124C27.1758 162.246 26.8421 162.372 26.5 162.5C23.3 163.7 20.8333 166 20 167L21 216L21 260L21 297L24 296.333M27.5 162.124L27.5 170C27.5356 170.166 27.5737 170.349 27.6139 170.547M24 296.333C24 267.667 26.5 199.5 26.5 196.5C26.5 196.068 26.5519 195.563 26.6408 195M26.6408 195C25.5939 193.333 23.5 188.6 23.5 183C23.5 176 26.2277 172.095 27.6139 170.547M26.6408 195C26.9016 193.348 27.4808 191.199 28 188.932M27.6139 170.547C27.8549 171.737 28.1678 173.472 28.4354 175.36M28.4354 175.36C28.7489 177.572 29 179.995 29 182C29 184.165 28.5314 186.61 28 188.932M28.4354 175.36C27.9569 175.573 26.9 177.2 26.5 182C26.1 186.8 27.3333 188.621 28 188.932" stroke="white"/>
<path d="M135 156.5C136 155.833 138.1 153.1 138.5 147.5C138.641 145.524 138.413 143.366 138 141.275M135.267 132.587C135.174 132.376 135.085 132.179 135 132L135.267 132.587ZM135.267 132.587C136.127 134.541 137.317 137.816 138 141.275M135.267 132.587H138.232C138.155 135.242 138 140.696 138 141.275" stroke="white"/>
<path d="M135 156.5C134 155.833 131.9 153.1 131.5 147.5C131.359 145.524 131.587 143.366 132 141.275M134.733 132.587C134.826 132.376 134.915 132.179 135 132L134.733 132.587ZM134.733 132.587C133.873 134.541 132.683 137.816 132 141.275M134.733 132.587H131.768C131.845 135.242 132 140.696 132 141.275" stroke="white"/>
<defs>
<filter id="filter0_d_82_994" x="0.5" y="0" width="269" height="635" filterUnits="userSpaceOnUse" color-interpolation-filters="sRGB">
<feFlood flood-opacity="0" result="BackgroundImageFix"/>
<feColorMatrix in="SourceAlpha" type="matrix" values="0 0 0 0 0 0 0 0 0 0 0 0 0 0 0 0 0 0 127 0" result="hardAlpha"/>
<feOffset/>
<feGaussianBlur stdDeviation="9"/>
<feComposite in2="hardAlpha" operator="out"/>
<feColorMatrix type="matrix" values="0 0 0 0 0 0 0 0 0 0 0 0 0 0 0 0 0 0 1 0"/>
<feBlend mode="normal" in2="BackgroundImageFix" result="effect1_dropShadow_82_994"/>
<feBlend mode="normal" in="SourceGraphic" in2="effect1_dropShadow_82_994" result="shape"/>
</filter>
</defs>
</svg>
